<svg width="21" height="21" viewBox="0 0 21 21" fill="none" xmlns="http://www.w3.org/2000/svg">
<path fill-rule="evenodd" clip-rule="evenodd" d="M20 17.9636C20 16.6806 18.0654 15.9678 17.0879 15.5809C16.4973 15.3365 15.8864 15.0922 15.2958 14.8274C14.5016 14.4609 13.687 14.0332 13.0965 13.3612C12.8928 13.1168 12.7706 12.9539 12.7706 12.6281C12.7706 12.1597 12.8928 11.6913 12.9946 11.2433C13.1576 10.5509 13.5038 9.98071 13.7889 9.32905C14.1147 8.51447 14.2369 7.65916 14.3998 6.82422C14.4609 6.45766 14.5627 6.11147 14.5627 5.74491C14.5627 3.21972 13.239 1 10.4898 1C7.74062 1 6.41693 3.21972 6.41693 5.74491C6.41693 6.11147 6.53912 6.45766 6.60021 6.82422C6.78349 7.65916 6.88532 8.51447 7.23151 9.32905C7.51661 9.98071 7.88317 10.5509 8.02572 11.2433C8.14791 11.6913 8.24973 12.1597 8.24973 12.6281C8.24973 12.9539 8.12755 13.1168 7.9239 13.3612C7.33333 14.0332 6.51876 14.4609 5.72454 14.8274C5.13398 15.1125 4.52304 15.3365 3.93248 15.5809C2.95498 15.9882 1 16.6806 1 17.9636V20H20V18.8189V17.9636Z" stroke="#008DCF" stroke-width="2"/>
</svg>
