<svg width="18" height="18" viewBox="0 0 18 18" fill="none" xmlns="http://www.w3.org/2000/svg">
<path fill-rule="evenodd" clip-rule="evenodd" d="M17 15.2851C17 14.2047 15.3708 13.6045 14.5477 13.2787C14.0504 13.0729 13.5359 12.8671 13.0386 12.6442C12.3698 12.3355 11.6838 11.9753 11.1865 11.4094C11.015 11.2036 10.9121 11.0665 10.9121 10.7921C10.9121 10.3976 11.015 10.0032 11.1007 9.62594C11.2379 9.04287 11.5295 8.5627 11.7696 8.01393C12.0439 7.32797 12.1468 6.60772 12.284 5.90461C12.3355 5.59593 12.4212 5.30439 12.4212 4.99571C12.4212 2.86924 11.3065 1 8.99143 1C6.67631 1 5.56163 2.86924 5.56163 4.99571C5.56163 5.30439 5.66452 5.59593 5.71597 5.90461C5.87031 6.60772 5.95606 7.32797 6.24759 8.01393C6.48767 8.5627 6.79636 9.04287 6.9164 9.62594C7.01929 10.0032 7.10504 10.3976 7.10504 10.7921C7.10504 11.0665 7.00214 11.2036 6.83065 11.4094C6.33333 11.9753 5.64737 12.3355 4.97856 12.6442C4.48124 12.8842 3.96677 13.0729 3.46945 13.2787C2.6463 13.6217 1 14.2047 1 15.2851V17H17V16.0054V15.2851Z" stroke="white" stroke-width="2"/>
</svg>
