<svg width="100" height="56" fill="none" xmlns="http://www.w3.org/2000/svg"><path d="M14.483 45.92V30.417L1.379 38.139l13.104 7.781zM.115 55.882l13.103-7.722L.115 40.379v15.503zM22.701 21.81l7.586 13.44 7.53-13.44H22.7zM32.414 39.141L40 52.581l7.529-13.44H32.413zM42.127 53.878h15.172l-7.586-13.44-7.587 13.44zM.115 35.899v.059l13.103-7.781L.115 20.396v15.503zM.115 15.975l13.103-7.722v-.06L.115.473v15.503zM85.632 35.899v.059l13.104-7.781-13.104-7.781v15.503zM85.632 15.975l13.104-7.722v-.06L85.632.473v15.503zM69.196 35.25l7.586-13.44H61.609l7.587 13.44zM59.425 23.107l-7.528 13.44H67.01l-7.586-13.44zM59.483 52.581l7.528-13.44H51.897l7.586 13.44zM86.897 38.139L100 45.92V30.417l-13.103 7.722zM85.632 55.882l13.104-7.722-13.104-7.781v15.503zM47.586 36.547L40 23.107l-7.529 13.44h15.115z" fill="#fff"/></svg>